<?xml version="1.0" encoding="UTF-8" standalone="no"?>
<svg
   xmlns:dc="http://purl.org/dc/elements/1.1/"
   xmlns:cc="http://creativecommons.org/ns#"
   xmlns:rdf="http://www.w3.org/1999/02/22-rdf-syntax-ns#"
   xmlns:svg="http://www.w3.org/2000/svg"
   xmlns="http://www.w3.org/2000/svg"
   xmlns:sodipodi="http://sodipodi.sourceforge.net/DTD/sodipodi-0.dtd"
   xmlns:inkscape="http://www.inkscape.org/namespaces/inkscape"
   width="78.634361mm"
   height="40.605003mm"
   viewBox="0 0 78.634363 40.605003"
   version="1.1"
   id="svg8"
   inkscape:version="1.0 (4035a4fb49, 2020-05-01)"
   sodipodi:docname="crown.svg">
  <defs
     id="defs2" />
  <sodipodi:namedview
     id="base"
     pagecolor="#00152d"
     bordercolor="#666666"
     borderopacity="1.0"
     inkscape:pageopacity="0"
     inkscape:pageshadow="2"
     inkscape:zoom="1.979899"
     inkscape:cx="131.47971"
     inkscape:cy="56.231602"
     inkscape:document-units="mm"
     inkscape:current-layer="layer1"
     inkscape:document-rotation="0"
     showgrid="false"
     inkscape:window-width="1920"
     inkscape:window-height="1001"
     inkscape:window-x="-9"
     inkscape:window-y="-9"
     inkscape:window-maximized="1"
     showguides="true"
     lock-margins="false"
     fit-margin-top="0"
     fit-margin-left="0"
     fit-margin-right="0"
     fit-margin-bottom="0"
     inkscape:pagecheckerboard="false" />
  <metadata
     id="metadata5">
    <rdf:RDF>
      <cc:Work
         rdf:about="">
        <dc:format>image/svg+xml</dc:format>
        <dc:type
           rdf:resource="http://purl.org/dc/dcmitype/StillImage" />
        <dc:title></dc:title>
      </cc:Work>
    </rdf:RDF>
  </metadata>
  <g
     inkscape:label="Layer 1"
     inkscape:groupmode="layer"
     id="layer1"
     transform="translate(-81.608089,-2.3477203)">
    <g
       id="g66">
      <path
         id="path63"
         d="m 95.067203,42.872195 c -0.454628,-0.0718 -1.153773,-0.478798 -1.55365,-0.904449 -0.605192,-0.644198 -0.727051,-1.115635 -0.727051,-2.812731 0,-1.917747 0.06292,-2.094997 1.059663,-2.984884 0.818814,-0.731038 1.357945,-0.946067 2.37202,-0.946067 3.073918,0 4.238235,1.104551 4.238235,4.020683 0,1.60162 -0.11218,1.945028 -0.865325,2.648975 -0.884185,0.826421 -2.826516,1.246531 -4.523892,0.978473 z m 24.369387,-0.08082 c -1.43185,-0.345728 -1.9278,-0.981013 -2.16566,-2.774072 -0.2877,-2.168773 0.22514,-3.562432 1.57926,-4.291671 2.02565,-1.090887 5.52064,-0.194059 5.52064,1.416618 0,0.309094 0.1416,0.649499 0.31466,0.75646 0.77108,0.476555 0.0478,3.632048 -1.02918,4.489814 -0.56033,0.44629 -3.05389,0.684345 -4.21972,0.402851 z m 24.54373,0 c -1.71565,-0.414254 -2.14395,-1.115495 -2.14487,-3.511706 -6.2e-4,-2.025726 0.0506,-2.172784 1.07852,-3.091252 0.87344,-0.780383 1.35364,-0.963461 2.51731,-0.959707 1.71779,0.0055 2.89795,0.536878 3.32191,1.495598 0.17083,0.386325 0.41863,0.702406 0.55066,0.702406 0.13203,0 0.24005,0.615439 0.24005,1.367641 0,1.367803 -0.61555,3.01408 -1.34386,3.594169 -0.56032,0.44629 -3.05388,0.684345 -4.21972,0.402851 z M 88.97121,25.869698 c -1.160079,-0.173542 -1.580857,-0.506989 -2.196115,-1.740302 -0.534994,-1.072417 -0.65129,-3.694505 -0.163861,-3.694505 0.173065,0 0.314663,-0.202757 0.314663,-0.45057 0,-0.24781 0.434202,-0.759744 0.96489,-1.137628 0.803345,-0.572032 1.279526,-0.664303 2.844191,-0.551125 2.730945,0.197539 3.274561,0.834966 3.258553,3.820896 -0.0098,1.836834 -0.135012,2.421579 -0.629327,2.939984 -0.650896,0.682621 -2.713618,1.064484 -4.392994,0.81325 z m 16.20926,6.3e-4 c -0.43041,-0.08217 -1.11354,-0.480374 -1.51808,-0.884912 -0.6227,-0.622703 -0.73741,-1.062096 -0.74781,-2.864503 -0.0116,-2.011837 0.044,-2.179297 1.01118,-3.043435 0.9366,-0.836853 1.18114,-0.903049 2.88161,-0.780048 1.47029,0.106351 2.02764,0.303877 2.67004,0.946279 0.70198,0.701978 0.8145,1.090981 0.83127,2.873909 0.0168,1.781973 -0.0847,2.165092 -0.74714,2.820794 -0.79241,0.784354 -2.85535,1.223171 -4.38107,0.931916 z m 14.43047,0.01016 c -0.45462,-0.0718 -1.16262,-0.488218 -1.57331,-0.925384 -0.63882,-0.67999 -0.74672,-1.112659 -0.74672,-2.994269 0,-1.7432 0.111,-2.261548 0.53513,-2.4989 0.29432,-0.16471 0.7444,-0.508746 1.00017,-0.764525 0.96706,-0.967059 4.67566,-0.404189 5.22884,0.793601 0.11988,0.259597 0.38157,0.788669 0.58153,1.175717 0.69331,1.341957 0.1832,3.803399 -0.98027,4.730082 -0.4682,0.372914 -2.90322,0.664053 -4.04537,0.483678 z m 14.89892,-0.08708 c -1.70878,-0.410807 -2.27245,-1.354679 -2.27245,-3.80535 0,-1.988297 0.063,-2.179474 0.96814,-2.941153 0.78033,-0.656608 1.2982,-0.81463 2.66967,-0.81463 1.43052,0 1.86319,0.144429 2.71637,0.906745 0.96946,0.866219 1.0139,1.00744 0.99419,3.159762 -0.0166,1.810793 -0.14099,2.365147 -0.63381,2.824282 -0.7265,0.676838 -2.99234,1.018726 -4.44211,0.670262 z m 15.82069,0.07958 c -0.51919,-0.07946 -1.11805,-0.288445 -1.33079,-0.464408 -0.73257,-0.605925 -1.34384,-2.241427 -1.34384,-3.595528 0,-1.133921 0.18288,-1.540032 1.1118,-2.468963 0.99223,-0.992226 1.29074,-1.111811 2.7753,-1.111811 1.41112,0 1.82724,0.146196 2.74281,0.963625 1.01702,0.907992 1.07934,1.080161 1.07934,2.982149 0,1.739496 -0.10874,2.124185 -0.78667,2.782867 -0.82239,0.799062 -2.55529,1.171132 -4.24795,0.912069 z M 119.45398,10.478056 c -0.36788,-0.08025 -1.00249,-0.5010202 -1.41023,-0.9350416 -0.61679,-0.6565478 -0.74231,-1.125925 -0.74709,-2.7937414 -0.005,-1.7928289 0.0919,-2.1066106 0.91844,-2.970069 0.80245,-0.8382673 1.14249,-0.9654571 2.58117,-0.9654571 2.16381,0 3.25199,0.5111136 3.47633,1.6328325 0.0974,0.4864606 0.30079,0.8844737 0.45222,0.8844737 0.15144,0 0.27534,0.6371932 0.27534,1.4159848 0,0.7787916 -0.1416,1.4159848 -0.31467,1.4159848 -0.17306,0 -0.31466,0.2517281 -0.31466,0.5593955 0,0.3076676 -0.27837,0.797745 -0.6186,1.0890612 -0.63478,0.5435096 -3.10574,0.9267096 -4.29825,0.6665766 z m 35.54071,-0.0012 c -0.37683,-0.08192 -0.82193,-0.317447 -0.98913,-0.5233881 -0.6015,-0.7409127 -1.62969,-2.7628663 -1.62969,-3.2048087 0,-0.5544181 1.53846,-3.3758514 2.01429,-3.6940694 0.19012,-0.1271486 1.22424,-0.2333474 2.29803,-0.2359976 1.67579,-0.00413 2.06579,0.1086369 2.75329,0.7961429 0.70037,0.7003658 0.80097,1.068407 0.80097,2.9304302 0,1.9206917 -0.0863,2.2120919 -0.87961,2.9721944 -0.89032,0.8529723 -2.86399,1.2865073 -4.36815,0.9595013 z M 83.89149,9.9291994 C 82.623601,9.2246714 82.205948,8.715117 82.205948,7.8727632 c 0,-0.4633906 -0.169918,-1.0124464 -0.377596,-1.2201242 -0.293684,-0.2936856 -0.293684,-0.4615063 0,-0.755192 0.207678,-0.2076776 0.377596,-0.7426027 0.377596,-1.1887219 0,-1.586976 2.657753,-2.836356 4.647117,-2.1845593 2.114372,0.6927536 2.578522,1.3999426 2.584702,3.9381057 0.0057,2.3368283 -0.112313,2.5669928 -1.799607,3.5100651 -0.865843,0.4839414 -2.839006,0.4612234 -3.74667,-0.043137 z"
         style="fill:#ffffff;stroke-width:0.314663"
         sodipodi:nodetypes="sssssssssssssssscccssssssssssscssssscsscssssssssssscscssssccssssssssssscsscssssssssssssscsssssssssss" />
      <path
         sodipodi:nodetypes="sssssssssssssssscccssssssssssscssssscsscssssssssssscscssssccssssssssssscsscssssssssssssscsssssssssss"
         style="fill:#ffffff;stroke-width:0.314663"
         d="m 95.067203,42.872195 c -0.454628,-0.0718 -1.153773,-0.478798 -1.55365,-0.904449 -0.605192,-0.644198 -0.727051,-1.115635 -0.727051,-2.812731 0,-1.917747 0.06292,-2.094997 1.059663,-2.984884 0.818814,-0.731038 1.357945,-0.946067 2.37202,-0.946067 3.073918,0 4.238235,1.104551 4.238235,4.020683 0,1.60162 -0.11218,1.945028 -0.865325,2.648975 -0.884185,0.826421 -2.826516,1.246531 -4.523892,0.978473 z m 24.369387,-0.08082 c -1.43185,-0.345728 -1.9278,-0.981013 -2.16566,-2.774072 -0.2877,-2.168773 0.22514,-3.562432 1.57926,-4.291671 2.02565,-1.090887 5.52064,-0.194059 5.52064,1.416618 0,0.309094 0.1416,0.649499 0.31466,0.75646 0.77108,0.476555 0.0478,3.632048 -1.02918,4.489814 -0.56033,0.44629 -3.05389,0.684345 -4.21972,0.402851 z m 24.54373,0 c -1.71565,-0.414254 -2.14395,-1.115495 -2.14487,-3.511706 -6.2e-4,-2.025726 0.0506,-2.172784 1.07852,-3.091252 0.87344,-0.780383 1.35364,-0.963461 2.51731,-0.959707 1.71779,0.0055 2.89795,0.536878 3.32191,1.495598 0.17083,0.386325 0.41863,0.702406 0.55066,0.702406 0.13203,0 0.24005,0.615439 0.24005,1.367641 0,1.367803 -0.61555,3.01408 -1.34386,3.594169 -0.56032,0.44629 -3.05388,0.684345 -4.21972,0.402851 z M 88.97121,25.869698 c -1.160079,-0.173542 -1.580857,-0.506989 -2.196115,-1.740302 -0.534994,-1.072417 -0.65129,-3.694505 -0.163861,-3.694505 0.173065,0 0.314663,-0.202757 0.314663,-0.45057 0,-0.24781 0.434202,-0.759744 0.96489,-1.137628 0.803345,-0.572032 1.279526,-0.664303 2.844191,-0.551125 2.730945,0.197539 3.274561,0.834966 3.258553,3.820896 -0.0098,1.836834 -0.135012,2.421579 -0.629327,2.939984 -0.650896,0.682621 -2.713618,1.064484 -4.392994,0.81325 z m 16.20926,6.3e-4 c -0.43041,-0.08217 -1.11354,-0.480374 -1.51808,-0.884912 -0.6227,-0.622703 -0.73741,-1.062096 -0.74781,-2.864503 -0.0116,-2.011837 0.044,-2.179297 1.01118,-3.043435 0.9366,-0.836853 1.18114,-0.903049 2.88161,-0.780048 1.47029,0.106351 2.02764,0.303877 2.67004,0.946279 0.70198,0.701978 0.8145,1.090981 0.83127,2.873909 0.0168,1.781973 -0.0847,2.165092 -0.74714,2.820794 -0.79241,0.784354 -2.85535,1.223171 -4.38107,0.931916 z m 14.43047,0.01016 c -0.45462,-0.0718 -1.16262,-0.488218 -1.57331,-0.925384 -0.63882,-0.67999 -0.74672,-1.112659 -0.74672,-2.994269 0,-1.7432 0.111,-2.261548 0.53513,-2.4989 0.29432,-0.16471 0.7444,-0.508746 1.00017,-0.764525 0.96706,-0.967059 4.67566,-0.404189 5.22884,0.793601 0.11988,0.259597 0.38157,0.788669 0.58153,1.175717 0.69331,1.341957 0.1832,3.803399 -0.98027,4.730082 -0.4682,0.372914 -2.90322,0.664053 -4.04537,0.483678 z m 14.89892,-0.08708 c -1.70878,-0.410807 -2.27245,-1.354679 -2.27245,-3.80535 0,-1.988297 0.063,-2.179474 0.96814,-2.941153 0.78033,-0.656608 1.2982,-0.81463 2.66967,-0.81463 1.43052,0 1.86319,0.144429 2.71637,0.906745 0.96946,0.866219 1.0139,1.00744 0.99419,3.159762 -0.0166,1.810793 -0.14099,2.365147 -0.63381,2.824282 -0.7265,0.676838 -2.99234,1.018726 -4.44211,0.670262 z m 15.82069,0.07958 c -0.51919,-0.07946 -1.11805,-0.288445 -1.33079,-0.464408 -0.73257,-0.605925 -1.34384,-2.241427 -1.34384,-3.595528 0,-1.133921 0.18288,-1.540032 1.1118,-2.468963 0.99223,-0.992226 1.29074,-1.111811 2.7753,-1.111811 1.41112,0 1.82724,0.146196 2.74281,0.963625 1.01702,0.907992 1.07934,1.080161 1.07934,2.982149 0,1.739496 -0.10874,2.124185 -0.78667,2.782867 -0.82239,0.799062 -2.55529,1.171132 -4.24795,0.912069 z M 119.45398,10.478056 c -0.36788,-0.08025 -1.00249,-0.5010202 -1.41023,-0.9350416 -0.61679,-0.6565478 -0.74231,-1.125925 -0.74709,-2.7937414 -0.005,-1.7928289 0.0919,-2.1066106 0.91844,-2.970069 0.80245,-0.8382673 1.14249,-0.9654571 2.58117,-0.9654571 2.16381,0 3.25199,0.5111136 3.47633,1.6328325 0.0974,0.4864606 0.30079,0.8844737 0.45222,0.8844737 0.15144,0 0.27534,0.6371932 0.27534,1.4159848 0,0.7787916 -0.1416,1.4159848 -0.31467,1.4159848 -0.17306,0 -0.31466,0.2517281 -0.31466,0.5593955 0,0.3076676 -0.27837,0.797745 -0.6186,1.0890612 -0.63478,0.5435096 -3.10574,0.9267096 -4.29825,0.6665766 z m 35.54071,-0.0012 c -0.37683,-0.08192 -0.82193,-0.317447 -0.98913,-0.5233881 -0.6015,-0.7409127 -1.62969,-2.7628663 -1.62969,-3.2048087 0,-0.5544181 1.53846,-3.3758514 2.01429,-3.6940694 0.19012,-0.1271486 1.22424,-0.2333474 2.29803,-0.2359976 1.67579,-0.00413 2.06579,0.1086369 2.75329,0.7961429 0.70037,0.7003658 0.80097,1.068407 0.80097,2.9304302 0,1.9206917 -0.0863,2.2120919 -0.87961,2.9721944 -0.89032,0.8529723 -2.86399,1.2865073 -4.36815,0.9595013 z M 83.89149,9.9291994 C 82.623601,9.2246714 82.205948,8.715117 82.205948,7.8727632 c 0,-0.4633906 -0.169918,-1.0124464 -0.377596,-1.2201242 -0.293684,-0.2936856 -0.293684,-0.4615063 0,-0.755192 0.207678,-0.2076776 0.377596,-0.7426027 0.377596,-1.1887219 0,-1.586976 2.657753,-2.836356 4.647117,-2.1845593 2.114372,0.6927536 2.578522,1.3999426 2.584702,3.9381057 0.0057,2.3368283 -0.112313,2.5669928 -1.799607,3.5100651 -0.865843,0.4839414 -2.839006,0.4612234 -3.74667,-0.043137 z"
         id="path9" />
    </g>
  </g>
</svg>
