<?xml version="1.0" encoding="UTF-8" standalone="no"?>
<svg
   xmlns:dc="http://purl.org/dc/elements/1.1/"
   xmlns:cc="http://creativecommons.org/ns#"
   xmlns:rdf="http://www.w3.org/1999/02/22-rdf-syntax-ns#"
   xmlns:svg="http://www.w3.org/2000/svg"
   xmlns="http://www.w3.org/2000/svg"
   xmlns:sodipodi="http://sodipodi.sourceforge.net/DTD/sodipodi-0.dtd"
   xmlns:inkscape="http://www.inkscape.org/namespaces/inkscape"
   sodipodi:docname="brodski_logo.svg"
   inkscape:version="1.0 (4035a4fb49, 2020-05-01)"
   id="svg8"
   version="1.1"
   viewBox="0 0 210 297"
   height="297mm"
   width="210mm">
  <defs
     id="defs2" />
  <sodipodi:namedview
     inkscape:window-maximized="1"
     inkscape:window-y="-9"
     inkscape:window-x="-9"
     inkscape:window-height="1001"
     inkscape:window-width="1920"
     showgrid="false"
     inkscape:document-rotation="0"
     inkscape:current-layer="layer1"
     inkscape:document-units="mm"
     inkscape:cy="229.50366"
     inkscape:cx="408.66533"
     inkscape:zoom="0.98994949"
     inkscape:pageshadow="2"
     inkscape:pageopacity="0.0"
     borderopacity="1.0"
     bordercolor="#666666"
     pagecolor="#ffffff"
     id="base" />
  <metadata
     id="metadata5">
    <rdf:RDF>
      <cc:Work
         rdf:about="">
        <dc:format>image/svg+xml</dc:format>
        <dc:type
           rdf:resource="http://purl.org/dc/dcmitype/StillImage" />
        <dc:title></dc:title>
      </cc:Work>
    </rdf:RDF>
  </metadata>
  <g
     id="layer1"
     inkscape:groupmode="layer"
     inkscape:label="Layer 1">
    <path
       id="path26"
       d="m 88.051675,90.471877 c -0.16518,0 -0.438048,-0.137722 -0.606375,-0.306049 -0.193691,-0.193691 -0.306049,-1.167623 -0.306049,-2.652888 v -2.346841 l 1.530246,-0.177602 c 0.841635,-0.09768 1.530245,-0.268663 1.530245,-0.379955 0,-0.111293 0.27964,-0.272537 0.621423,-0.358318 0.34178,-0.08578 1.179786,-0.700758 1.862233,-1.366614 0.682446,-0.665856 1.320225,-1.382799 1.417283,-1.593207 0.09706,-0.210409 0.275164,-0.554715 0.395788,-0.765123 0.120624,-0.210409 0.414592,-0.791115 0.653262,-1.290454 0.310306,-0.649215 0.432906,-1.561703 0.430297,-3.202595 -0.0025,-1.560474 -0.128877,-2.53485 -0.395028,-3.045243 -0.215257,-0.412797 -0.392084,-0.88425 -0.392949,-1.047675 -7.65e-4,-0.163425 -0.2598,-0.615169 -0.575413,-1.003877 -0.315613,-0.388708 -1.009358,-1.144739 -1.541654,-1.68007 -0.532296,-0.535328 -1.417181,-1.202577 -1.966407,-1.482772 -0.549228,-0.280193 -1.282619,-0.509445 -1.629755,-0.509445 -0.347139,0 -0.925554,-0.111927 -1.285366,-0.248728 -0.635547,-0.241634 -0.654205,-0.314377 -0.654205,-2.55041 0,-2.264608 0.0099,-2.301681 0.617002,-2.301681 0.339353,0 1.343577,0.177769 2.231609,0.395041 0.888032,0.217274 2.228125,0.695588 2.977983,1.062924 0.749859,0.367335 1.422055,0.820793 1.493773,1.007684 0.07172,0.186892 0.261575,0.341582 0.421909,0.343757 0.160332,0.0023 0.807973,0.561799 1.439199,1.243608 0.631226,0.681806 1.318995,1.450989 1.528374,1.709297 0.209381,0.258306 0.582378,0.845951 0.828883,1.305879 0.246507,0.459928 0.448194,1.008799 0.448194,1.219718 0,0.210916 0.107737,0.383485 0.239414,0.383485 0.131678,0 0.309712,0.54515 0.39563,1.211444 0.08592,0.666295 0.265099,1.410732 0.398189,1.654306 0.13308,0.243574 0.24197,1.298408 0.24197,2.344076 0,1.045671 -0.11477,1.972148 -0.25504,2.058841 -0.14027,0.08669 -0.25504,0.641773 -0.25504,1.233509 0,0.591735 -0.15503,1.302267 -0.34451,1.578953 -0.189482,0.276689 -0.42374,0.828786 -0.520577,1.22688 -0.09683,0.398096 -0.45953,1.029322 -0.805988,1.402725 -0.346458,0.373406 -0.693775,0.879761 -0.771815,1.125238 -0.07804,0.245477 -0.248928,0.446322 -0.379748,0.446322 -0.130818,0 -0.237854,0.172153 -0.237854,0.382561 0,0.210409 -0.105403,0.382562 -0.23423,0.382562 -0.128826,0 -0.712265,0.459296 -1.296529,1.020656 -0.584265,0.561363 -1.339625,1.090262 -1.678577,1.175333 -0.338955,0.08507 -0.616279,0.244562 -0.616279,0.354421 0,0.109858 -0.314463,0.27867 -0.698807,0.375134 -0.384344,0.09646 -0.771841,0.293555 -0.8611,0.437982 -0.08926,0.144427 -0.691107,0.322198 -1.337437,0.395048 -0.64633,0.07285 -1.305805,0.28989 -1.465499,0.482311 -0.159694,0.192418 -0.425498,0.349852 -0.590675,0.349852 z m -4.738039,-0.609124 c -0.210409,0.01887 -1.071172,-0.05095 -1.912807,-0.155157 -0.841636,-0.104205 -2.218857,-0.522984 -3.060492,-0.930624 -0.841635,-0.407637 -1.813903,-0.967733 -2.160595,-1.244653 -0.346693,-0.276921 -1.092688,-0.975218 -1.657767,-1.551769 -0.565079,-0.576551 -1.19957,-1.260951 -1.409978,-1.520889 -0.210409,-0.259937 -0.521521,-0.706361 -0.69136,-0.992053 -0.16984,-0.285692 -0.379685,-0.691592 -0.466327,-0.902001 -0.08664,-0.210408 -0.320679,-0.68719 -0.520085,-1.059514 -0.199406,-0.372324 -0.362556,-0.89452 -0.362556,-1.160436 0,-0.265916 -0.127921,-0.611405 -0.284266,-0.76775 -0.181133,-0.181133 -0.282178,-1.515379 -0.27851,-3.67752 0.0038,-2.221269 0.10195,-3.425317 0.284266,-3.486089 0.15318,-0.05106 0.27851,-0.344657 0.27851,-0.652438 0,-0.307781 0.155029,-0.785982 0.344509,-1.062669 0.189483,-0.276689 0.421205,-0.818684 0.514943,-1.204433 0.09373,-0.38575 0.283012,-0.701363 0.420611,-0.701363 0.1376,0 0.250183,-0.133833 0.250183,-0.297406 0,-0.163573 0.200844,-0.522301 0.446321,-0.797171 0.245477,-0.274873 1.134933,-1.172709 1.976568,-1.995193 0.841635,-0.822484 1.673706,-1.496672 1.849047,-1.498198 0.175341,-0.0015 0.318801,-0.10842 0.318801,-0.237545 0,-0.129127 0.344306,-0.3104 0.765123,-0.402827 0.420818,-0.09243 0.765123,-0.268497 0.765123,-0.391268 0,-0.122772 0.430382,-0.289224 0.956404,-0.369894 0.526022,-0.08067 1.332309,-0.266502 1.79175,-0.412962 0.459438,-0.14646 1.176741,-0.191306 1.594006,-0.09966 l 0.75866,0.166628 v 2.085325 c 0,2.032011 -0.01793,2.093012 -0.701363,2.385891 -0.385749,0.165312 -1.246513,0.378511 -1.912807,0.473779 -0.666295,0.09527 -1.211445,0.274949 -1.211445,0.399295 0,0.124345 -0.149492,0.226083 -0.332206,0.226083 -0.182714,0 -0.911879,0.567624 -1.620367,1.261387 -0.708489,0.693762 -1.620605,1.919071 -2.026923,2.722907 -0.670771,1.327011 -0.738762,1.700258 -0.738762,4.055587 0,1.55423 0.115988,2.737447 0.289352,2.951755 0.159143,0.196728 0.369105,0.730685 0.466584,1.18657 0.09748,0.455886 0.285725,0.828884 0.418326,0.828884 0.132599,0 0.345966,0.275847 0.474147,0.612991 0.128184,0.337146 0.675915,0.968882 1.217186,1.403857 0.541268,0.434975 1.419769,1.012969 1.952226,1.28443 0.532457,0.271463 1.592767,0.571613 2.356245,0.667003 l 1.388139,0.173438 -0.07293,2.325683 c -0.05789,1.846058 -0.151821,2.332758 -0.455488,2.359989 z m 32.444164,-0.0023 -1.09372,0.135544 0.0736,-2.376226 0.0736,-2.376237 1.53024,-0.255041 c 0.84164,-0.140273 1.64502,-0.327621 1.78529,-0.416329 0.14027,-0.08871 0.61845,-0.239183 1.06262,-0.334387 0.44416,-0.0952 0.87095,-0.338238 0.9484,-0.540075 0.0774,-0.201837 0.30087,-0.366976 0.49648,-0.366976 0.19562,0 0.85914,-0.562896 1.4745,-1.250879 0.61535,-0.687986 1.24897,-1.414883 1.40804,-1.615332 0.15907,-0.20045 0.36874,-0.726536 0.46594,-1.169085 0.0972,-0.442547 0.28267,-0.870106 0.41215,-0.95013 0.12948,-0.08002 0.23541,-1.17164 0.23541,-2.425814 0,-1.254174 -0.10565,-2.280317 -0.23477,-2.280317 -0.12913,0 -0.31591,-0.372997 -0.41508,-0.828883 -0.0992,-0.455885 -0.51634,-1.230572 -0.92705,-1.721526 -0.4107,-0.490954 -0.94693,-1.12218 -1.19161,-1.402725 -0.24468,-0.280546 -0.6687,-0.652342 -0.94227,-0.826213 -0.27356,-0.173872 -0.89908,-0.532863 -1.39003,-0.797758 -0.49096,-0.264896 -1.29434,-0.557446 -1.78529,-0.650112 -0.49096,-0.09267 -1.38041,-0.293741 -1.97657,-0.446832 l -1.08392,-0.278347 V 64.42455 c 0,-2.157558 0.0258,-2.262224 0.55849,-2.262224 0.30717,0 1.25401,0.128161 2.10408,0.284802 0.85008,0.156641 2.00468,0.454136 2.56577,0.661099 0.56109,0.206963 1.42185,0.566523 1.9128,0.799018 0.49096,0.232498 1.3867,0.793853 1.99054,1.247456 0.60384,0.453606 1.26567,0.992518 1.47073,1.197583 0.20507,0.205066 0.79067,0.924282 1.30134,1.598258 0.51067,0.673976 1.00755,1.282795 1.10417,1.352931 0.0966,0.07014 0.25982,0.470676 0.36268,0.890088 0.10285,0.419412 0.30835,0.837562 0.45666,0.929219 0.1483,0.09166 0.32596,0.752728 0.39479,1.469041 0.0688,0.716313 0.22531,1.302389 0.34773,1.302389 0.12243,0 0.22259,0.895194 0.22259,1.98932 0,1.094126 -0.11887,2.108192 -0.26416,2.253483 -0.14529,0.14529 -0.27193,0.914238 -0.28142,1.708775 -0.009,0.794534 -0.10925,1.444611 -0.22168,1.444611 -0.11244,0 -0.51809,0.535223 -0.90146,1.189388 -0.38336,0.654165 -0.9968,1.536931 -1.3632,1.961704 -0.36639,0.424773 -1.12524,1.208726 -1.68633,1.742116 -0.56109,0.53339 -1.22101,1.035578 -1.46649,1.115975 -0.24548,0.08039 -0.44632,0.244801 -0.44632,0.365349 0,0.120545 -0.34315,0.39036 -0.76256,0.599586 -0.4194,0.209228 -1.10801,0.456288 -1.53024,0.549026 -0.42223,0.09274 -0.76769,0.266006 -0.76769,0.385038 0,0.119033 -0.65992,0.286151 -1.46649,0.371371 -0.80657,0.08522 -1.95866,0.21594 -2.56021,0.290489 z m 74.99185,0.0591 c -0.10521,-0.02323 -1.05204,-0.110214 -2.10409,-0.193288 -1.05204,-0.08308 -2.14234,-0.278199 -2.42289,-0.433601 -0.28054,-0.155404 -1.29633,-0.663014 -2.2573,-1.128023 -0.96098,-0.465008 -1.80533,-0.996876 -1.87634,-1.181926 -0.071,-0.18505 -0.26647,-0.336455 -0.43435,-0.336455 -0.16789,0 -0.67206,-0.378461 -1.1204,-0.841026 -0.44833,-0.462563 -0.81515,-0.927117 -0.81515,-1.032342 0,-0.105222 -0.26678,-0.444064 -0.59285,-0.75298 -0.32606,-0.308916 -0.94976,-1.307659 -1.38598,-2.219431 -0.49016,-1.024484 -0.89506,-2.406204 -1.05995,-3.616983 -0.18494,-1.358116 -0.18561,-2.610084 -0.002,-4.080655 0.18479,-1.481485 0.52344,-2.660606 1.12261,-3.908771 0.57945,-1.207106 1.41072,-2.345533 2.56063,-3.506813 0.93646,-0.945715 1.81428,-1.719481 1.95072,-1.719481 0.13643,0 0.72781,-0.319123 1.31418,-0.70916 0.58636,-0.390039 1.35303,-0.852229 1.70372,-1.027088 0.35068,-0.174859 1.26883,-0.438548 2.04032,-0.585972 0.7715,-0.147426 1.8905,-0.328021 2.48665,-0.40132 l 1.08393,-0.133274 v 2.327364 c 0,2.263598 -0.0179,2.334176 -0.65421,2.57609 -0.35981,0.136801 -0.98994,0.248728 -1.40029,0.248728 -0.41035,0 -1.32103,0.251042 -2.02372,0.557874 -0.70271,0.30683 -1.27764,0.651135 -1.27764,0.765123 0,0.113986 -0.15551,0.207249 -0.34557,0.207249 -0.19006,0 -0.93605,0.624356 -1.65776,1.387459 -0.72171,0.763103 -1.31221,1.556918 -1.31221,1.764034 0,0.207116 -0.12605,0.418594 -0.28012,0.469949 -0.15407,0.05136 -0.34145,0.637398 -0.41639,1.302313 -0.075,0.664917 -0.23581,1.270461 -0.35748,1.345657 -0.12167,0.07519 -0.22121,0.531633 -0.22121,1.014308 0,0.482675 0.0988,0.877591 0.21952,0.877591 0.12073,0 0.28687,0.568698 0.36919,1.263771 0.0823,0.695076 0.35653,1.580915 0.60937,1.968534 0.25282,0.387616 0.99054,1.253524 1.63936,1.924238 0.64882,0.670715 1.30874,1.219481 1.46649,1.219481 0.15774,0 0.28681,0.100846 0.28681,0.2241 0,0.123253 0.37299,0.364374 0.82888,0.53582 0.45589,0.171447 1.05842,0.408482 1.33897,0.526742 0.28054,0.118259 1.11261,0.289601 1.84904,0.380755 l 1.33897,0.165736 v 2.398956 c 0,1.319427 -0.0861,2.379948 -0.19128,2.356717 z m -43.7972,-0.260073 c -8.1043,0.0686 -9.52553,0.02575 -9.7919,-0.29521 -0.20035,-0.241402 -0.28468,-1.044077 -0.2362,-2.248097 l 0.0754,-1.872638 9.50941,-0.127521 9.5094,-0.12752 1.14057,-1.190493 c 0.89305,-0.93215 1.17477,-1.440112 1.29822,-2.340769 0.12855,-0.937857 0.0475,-1.328559 -0.43902,-2.115736 -0.32818,-0.531005 -0.80098,-1.169748 -1.05066,-1.41943 -0.24968,-0.249683 -0.94248,-0.566676 -1.53955,-0.704431 -0.59707,-0.137753 -2.03242,-0.253268 -3.18967,-0.256696 l -2.10409,-0.0062 v -2.19739 -2.197389 l 3.3793,0.108372 c 3.0161,0.09673 3.51634,0.179291 4.65449,0.768227 0.70137,0.362918 1.73884,1.159515 2.3055,1.770216 0.56667,0.610698 1.28397,1.601662 1.59401,2.202138 0.31004,0.600479 0.56371,1.483161 0.56371,1.961518 0,0.478355 0.11477,0.940668 0.25504,1.027361 0.14027,0.08669 0.25504,0.380389 0.25504,0.652655 0,0.272266 -0.10016,0.495029 -0.22259,0.495029 -0.12242,0 -0.27891,0.586077 -0.34773,1.30239 -0.0688,0.716313 -0.24012,1.376232 -0.38064,1.466486 -0.14052,0.09025 -0.33641,0.423386 -0.43532,0.740294 -0.0989,0.316907 -0.83636,1.255534 -1.63879,2.085838 -0.83889,0.868034 -1.77971,1.586538 -2.21367,1.690577 -0.4151,0.09951 -0.91565,0.308574 -1.11234,0.464572 -0.24365,0.193237 -3.37907,0.309209 -9.83793,0.363883 z M 5.143575,89.372702 C 4.0213947,89.399382 2.9597866,89.361123 2.784446,89.287689 2.5351697,89.183285 2.4656447,86.244703 2.4656447,75.813056 c 0,-11.930077 0.042668,-13.357485 0.4034207,-13.495919 0.2218813,-0.08515 1.3074797,-0.154807 2.4124409,-0.154807 h 2.0090203 l 0.074209,5.037059 c 0.040815,2.770383 0.016824,8.881802 -0.053312,13.580932 l -0.1275205,8.543872 z m 12.346431,0.07901 c -5.737026,0 -7.15985,-0.0671 -7.265594,-0.342667 -0.07232,-0.188471 -0.09741,-1.192694 -0.05576,-2.231609 l 0.07574,-1.88894 7.459948,-0.06761 c 4.681234,-0.04243 7.459949,-0.161178 7.459949,-0.318801 0,-0.138156 0.158953,-0.25119 0.353229,-0.25119 0.194277,0 0.563165,-0.315613 0.819753,-0.701363 0.318513,-0.478844 0.468074,-1.180564 0.471405,-2.211771 0.0031,-0.974496 -0.10673,-1.547611 -0.309673,-1.615261 -0.173002,-0.05767 -0.317374,-0.238746 -0.320825,-0.402396 -0.0035,-0.163652 -0.409858,-0.498393 -0.903126,-0.74387 -0.789876,-0.393085 -1.748564,-0.446322 -8.037445,-0.446322 h -7.140595 l 0.07369,-2.231609 0.07369,-2.231608 6.631065,0.0028 c 4.387592,0.0018 7.105647,0.110867 8.033791,0.322324 0.771499,0.175769 1.775723,0.495532 2.231609,0.710585 0.455885,0.215053 0.828883,0.500388 0.828883,0.63408 0,0.13369 0.177491,0.243074 0.394423,0.243074 0.216933,0 0.589931,0.343579 0.828884,0.763511 0.238953,0.419931 0.517666,0.764236 0.619367,0.765123 0.101697,7.66e-4 0.435298,0.546762 0.741335,1.213057 0.425671,0.92676 0.552355,1.670646 0.539093,3.165525 -0.01153,1.299309 -0.168633,2.282089 -0.46886,2.932971 -0.248336,0.538392 -0.784626,1.409272 -1.19175,1.935294 -0.407127,0.526022 -0.902741,0.956404 -1.101362,0.956404 -0.198621,0 -0.36113,0.103179 -0.36113,0.229289 0,0.126111 -0.462609,0.470416 -1.028017,0.765123 -0.56541,0.294698 -1.247248,0.535824 -1.515195,0.535824 -0.267947,0 -0.558107,0.114768 -0.6448,0.25504 -0.09901,0.160192 -2.810768,0.255041 -7.291725,0.255041 z m 23.040505,-0.05419 -2.359129,0.07333 V 75.807022 62.143189 l 2.359129,0.07333 2.359129,0.07333 v 13.517172 13.517171 z m 68.984419,5.1e-4 c -1.64474,0.05426 -2.26907,-0.01316 -2.36169,-0.255041 -0.0692,-0.180926 -0.0961,-6.296842 -0.0596,-13.591013 l 0.0663,-13.262131 h 2.29537 2.29537 V 75.807019 89.32419 l -2.23578,0.07375 z m 62.28992,0.05368 c -1.60756,0 -2.34025,-0.0963 -2.42544,-0.318801 -0.0671,-0.17534 -0.0922,-6.28676 -0.0558,-13.580931 l 0.0663,-13.262131 2.35913,-0.07333 2.35913,-0.07333 V 75.79745 89.451713 Z m 31.05925,-0.05383 -2.23161,0.07369 V 75.807022 62.14247 l 2.23161,0.07369 2.2316,0.07369 V 75.807022 89.324193 Z M 63.4842,89.180363 c -0.245477,-0.009 -0.848012,-0.20022 -1.338966,-0.424993 -0.490953,-0.224775 -1.351717,-0.6061 -1.912807,-0.847389 -0.56109,-0.241292 -1.880927,-0.806457 -2.932971,-1.255924 -1.052044,-0.449469 -2.257113,-0.970188 -2.677931,-1.157154 -0.420817,-0.186965 -1.740654,-0.758208 -2.932971,-1.26943 -1.192316,-0.511222 -2.74169,-1.199234 -3.443053,-1.528912 -0.701363,-0.329679 -1.533434,-0.6739 -1.849047,-0.764934 -0.536645,-0.154787 -0.573842,-0.30493 -0.573842,-2.316178 0,-1.958837 0.04415,-2.150661 0.495029,-2.150661 0.272267,0 0.565961,0.114768 0.652655,0.255041 0.08669,0.140273 0.370957,0.255041 0.631701,0.255041 0.260741,0 1.045321,0.286921 1.743514,0.637602 0.69819,0.350682 1.407203,0.637603 1.575589,0.637603 0.168383,0 0.61079,0.214479 0.983124,0.47662 0.372335,0.262144 0.963895,0.556053 1.314576,0.653137 0.350681,0.09708 1.211445,0.438648 1.912807,0.759033 0.701363,0.320385 1.804234,0.829855 2.450824,1.132152 0.646591,0.302298 1.306509,0.549631 1.466486,0.549631 0.159977,0 0.290867,0.114769 0.290867,0.255041 0,0.140273 0.205269,0.255041 0.456156,0.255041 0.250886,0 0.906377,0.229537 1.456651,0.510082 0.550274,0.280545 1.12674,0.510082 1.28104,0.510082 0.1543,0 0.531722,0.234008 0.838718,0.520018 0.477862,0.445197 0.558172,0.7938 0.558172,2.42289 0,1.648444 -0.05968,1.90069 -0.446321,1.886561 z m 34.494292,-4.064346 c -0.07014,0 -0.12752,-0.05738 -0.12752,-0.12752 0,-0.07014 0.05738,-0.127521 0.12752,-0.127521 0.07014,0 0.127521,0.05738 0.127521,0.127521 0,0.07014 -0.05738,0.12752 -0.127521,0.12752 z m 47.118818,-8.189835 c -1.08711,-0.01568 -2.536,-0.135511 -3.21975,-0.266273 -0.68375,-0.130762 -1.65928,-0.543959 -2.16785,-0.918216 -0.50856,-0.374257 -1.11147,-0.865793 -1.33978,-1.0923 -0.22832,-0.226507 -0.50202,-0.689929 -0.60822,-1.029825 -0.1062,-0.339898 -0.29646,-0.684667 -0.4228,-0.766155 -0.12633,-0.08149 -0.29217,-0.597944 -0.36852,-1.147685 -0.0764,-0.549738 -0.26507,-1.260073 -0.41938,-1.578522 -0.20804,-0.429341 -0.20279,-0.656769 0.0203,-0.879892 0.16549,-0.165491 0.30089,-0.728817 0.30089,-1.251832 0,-0.523018 0.14346,-1.104348 0.31881,-1.291849 0.17534,-0.187499 0.52959,-0.754462 0.78724,-1.259915 0.25764,-0.505456 1.00363,-1.307083 1.65776,-1.781398 l 1.18934,-0.862388 8.99019,-0.07592 8.9902,-0.07591 v 2.052483 2.052485 h -7.62009 c -6.06077,0 -7.80022,0.07527 -8.50041,0.367826 -0.48418,0.202306 -1.04202,0.562648 -1.23964,0.800759 -0.22287,0.268551 -0.3518,0.984846 -0.33955,1.886487 0.016,1.17981 0.13545,1.569357 0.6341,2.068451 0.54412,0.544595 0.88415,0.625004 2.97403,0.703278 l 2.35967,0.08838 v 2.143229 2.143229 z m -91.868979,-1.03493 -7.405719,0.08423 v -2.060797 -2.060797 h 6.105931 c 3.795512,0 6.165575,-0.0965 6.263556,-0.255041 0.08669,-0.140273 0.419984,-0.255041 0.740647,-0.255041 0.320663,0 0.797556,-0.237058 1.059764,-0.526792 0.34252,-0.378481 0.47674,-0.91701 0.47674,-1.912808 0,-0.97928 -0.130848,-1.516991 -0.445888,-1.832336 -0.39842,-0.398808 -1.178057,-0.454728 -7.32332,-0.525296 l -6.87743,-0.07897 v -2.125351 c 0,-1.702768 0.08021,-2.156129 0.403421,-2.280156 0.22188,-0.08514 3.009596,-0.154807 6.19492,-0.154807 4.304875,0 6.165562,0.09743 7.248749,0.379565 0.801487,0.208761 1.890065,0.665988 2.419061,1.016063 0.528996,0.350071 1.179848,1.011339 1.446338,1.469482 0.266489,0.45814 0.594916,0.906826 0.72984,0.99708 0.134922,0.09025 0.301543,0.778864 0.370266,1.530246 0.06873,0.751381 0.230779,1.499393 0.360121,1.662245 0.142917,0.179944 0.143192,0.352941 7.65e-4,0.441004 -0.128957,0.0797 -0.287184,0.692451 -0.35162,1.361671 -0.07609,0.790237 -0.378198,1.589864 -0.861842,2.281125 -0.409578,0.5854 -0.974226,1.187101 -1.254771,1.337113 -0.280545,0.150015 -0.739619,0.417046 -1.020164,0.593404 -0.280545,0.176358 -0.591869,0.435421 -0.691832,0.575694 -0.111583,0.156577 -3.040854,0.287558 -7.587469,0.339271 z M 23.506526,72.108928 c -1.472862,0 -2.677931,-0.101415 -2.677931,-0.225365 0,-0.12395 0.46537,-0.645797 1.034155,-1.159658 0.851891,-0.769635 1.041257,-1.112405 1.074453,-1.944871 0.02961,-0.742424 -0.111197,-1.162207 -0.530644,-1.582032 -0.550426,-0.550919 -0.783786,-0.576038 -6.494074,-0.698976 l -5.9231313,-0.12752 -0.07541,-1.872638 c -0.049147,-1.220463 0.035053,-2.005737 0.2417703,-2.254818 0.269544,-0.324779 1.200164,-0.367264 6.196393,-0.282883 4.107603,0.06937 6.109772,0.20039 6.644337,0.434791 0.420817,0.184525 1.253258,0.56021 1.849869,0.834861 0.59661,0.274649 1.216326,0.749354 1.377146,1.054901 0.160819,0.305546 0.388642,0.618867 0.506275,0.696267 0.11763,0.0774 0.343713,0.76601 0.502405,1.530245 0.158694,0.764236 0.277403,1.561672 0.263802,1.772081 -0.01359,0.210409 -0.09643,0.805759 -0.184066,1.323002 -0.08763,0.517244 -0.377152,1.137565 -0.643377,1.378494 -0.266222,0.24093 -0.484042,0.592417 -0.484042,0.781086 0,0.265569 -0.604723,0.343033 -2.67793,0.343033 z M 84.843882,45.391746 c -0.631227,0.06692 -1.449174,0.07405 -1.817659,0.01586 -0.368486,-0.05819 -0.935157,-0.388075 -1.259265,-0.733074 -0.490521,-0.522136 -0.58929,-0.904246 -0.58929,-2.279776 0,-1.554373 0.051,-1.698037 0.858878,-2.419308 0.663665,-0.592522 1.100642,-0.766807 1.922571,-0.766807 0.585028,0 1.417548,0.123356 1.850041,0.274124 0.432494,0.15077 0.966078,0.548419 1.185745,0.883671 0.247476,0.377697 0.399389,1.176858 0.399389,2.10105 0,1.298146 -0.09092,1.576485 -0.701363,2.147047 -0.465628,0.435207 -1.087112,0.696438 -1.849047,0.777213 z m 19.893198,0.0099 c -0.63123,0.07499 -1.51277,0.0482 -1.95898,-0.05954 -0.44621,-0.10774 -1.01059,-0.395194 -1.25418,-0.638786 -0.34834,-0.348335 -0.44738,-0.914118 -0.46392,-2.64998 -0.0207,-2.168027 -0.01,-2.208594 0.61659,-2.292441 0.35068,-0.04695 0.74663,-0.190406 0.87989,-0.318801 0.13326,-0.128393 0.76448,-0.231754 1.40272,-0.229685 0.63824,0.002 1.4361,0.145529 1.77301,0.318801 0.33691,0.173272 0.69207,0.487195 0.78924,0.697603 0.0972,0.210409 0.30928,0.639233 0.47136,0.952943 0.16207,0.313711 0.29468,0.898612 0.29468,1.299781 0,0.401172 -0.17454,1.079262 -0.38786,1.506871 -0.21331,0.427607 -0.52893,0.889838 -0.70136,1.027175 -0.17243,0.137337 -0.82997,0.311063 -1.46119,0.386058 z m 19.89319,0 c -0.63122,0.07499 -1.51276,0.0482 -1.95897,-0.05954 -0.44621,-0.10774 -1.01976,-0.404358 -1.27455,-0.659149 -0.35611,-0.356106 -0.46341,-0.862005 -0.46391,-2.187159 -5.1e-4,-1.641893 0.041,-1.761086 0.87416,-2.505523 0.70793,-0.632517 1.09715,-0.780905 2.04033,-0.777862 0.64103,0.002 1.45243,0.147567 1.80311,0.323328 0.35068,0.175764 0.75089,0.575763 0.88936,0.888884 0.13847,0.313124 0.33931,0.569315 0.44632,0.569315 0.10701,0 0.19456,0.498825 0.19456,1.1085 0,0.609676 -0.17453,1.458363 -0.38785,1.885972 -0.21332,0.427607 -0.52893,0.889838 -0.70136,1.027175 -0.17243,0.137337 -0.82997,0.311063 -1.4612,0.386058 z m -78.170056,-0.07202 c -12.038809,0 -18.745512,-0.08919 -18.745512,-0.249292 0,-0.13711 0.356812,-0.911797 0.792915,-1.721527 0.436104,-0.809729 0.895178,-1.51049 1.020164,-1.557247 0.124988,-0.04676 0.227249,-0.239404 0.227249,-0.428104 0,-0.188702 0.14346,-0.494751 0.318801,-0.68011 0.175341,-0.185361 0.605722,-0.89121 0.956404,-1.568553 0.350681,-0.677343 0.798885,-1.538106 0.996009,-1.912807 0.197123,-0.374701 0.455352,-0.719529 0.573842,-0.766286 0.118489,-0.04676 0.215436,-0.239404 0.215436,-0.428104 0,-0.188702 0.14346,-0.494752 0.318801,-0.68011 0.17534,-0.185361 0.585645,-0.853477 0.911789,-1.484703 0.326144,-0.631227 0.785218,-1.487894 1.020164,-1.903705 0.234946,-0.415814 0.570636,-0.911777 0.745977,-1.102142 0.175341,-0.190368 0.318801,-0.50051 0.318801,-0.689212 0,-0.1887 0.08608,-0.381345 0.191281,-0.428105 0.105204,-0.04676 0.470382,-0.60147 0.811507,-1.232697 0.341125,-0.631226 0.800199,-1.491903 1.020164,-1.912613 0.219965,-0.420713 0.469758,-0.822402 0.555097,-0.892645 0.08534,-0.07024 0.585446,-0.931092 1.111354,-1.913 0.525907,-0.981907 1.058619,-1.823543 1.183806,-1.8703 0.125186,-0.04676 0.227611,-0.239405 0.227611,-0.428105 0,-0.1887 0.14346,-0.494749 0.318801,-0.680109 0.175341,-0.18536 0.585646,-0.853476 0.91179,-1.484703 0.326143,-0.631226 0.785217,-1.491989 1.020163,-1.912807 0.234947,-0.420817 0.513253,-0.803379 0.618457,-0.850136 0.105204,-0.04676 0.191281,-0.239405 0.191281,-0.428105 0,-0.1887 0.14346,-0.494749 0.318801,-0.680109 0.175341,-0.18536 0.585082,-0.882169 0.910535,-1.548463 0.325455,-0.666295 0.74461,-1.211445 0.931455,-1.211445 0.186846,0 0.464057,0.315614 0.616026,0.701363 0.151969,0.385749 0.421425,0.9309 0.59879,1.211445 0.177369,0.280545 0.399463,0.568615 0.493548,0.640157 0.09408,0.07154 0.249984,0.444538 0.346448,0.828883 0.09646,0.384344 0.269665,0.698808 0.38489,0.698808 0.115227,0 0.467434,0.516458 0.782682,1.147684 0.315251,0.631227 0.655165,1.147685 0.755368,1.147685 0.1002,0 0.261111,0.314463 0.357575,0.698807 0.09646,0.384345 0.252366,0.757342 0.346448,0.828884 0.09408,0.07154 0.312486,0.359612 0.485338,0.640157 0.172851,0.280545 0.621856,1.112616 0.997786,1.849047 0.375933,0.736431 0.770538,1.338965 0.876905,1.338965 0.106365,0 0.269015,0.344305 0.361442,0.765123 0.09243,0.420817 0.260312,0.765123 0.373079,0.765123 0.112769,0 0.278553,0.200844 0.368411,0.446321 0.08986,0.245477 0.447865,0.905396 0.795565,1.466486 0.3477,0.56109 0.70264,1.221009 0.788753,1.466485 0.08611,0.245477 0.248835,0.446322 0.361604,0.446322 0.112767,0 0.280652,0.344305 0.373079,0.765123 0.09243,0.420818 0.270336,0.765123 0.395355,0.765123 0.125018,0 0.522349,0.602534 0.882959,1.338965 0.36061,0.736431 0.794353,1.568502 0.963877,1.849047 0.16952,0.280545 0.365603,0.567466 0.43574,0.637602 0.07014,0.07014 0.268945,0.357058 0.441797,0.637603 0.172851,0.280545 0.621856,1.112616 0.997787,1.849047 0.375932,0.736431 0.767214,1.338965 0.869521,1.338965 0.102305,0 0.264934,0.314463 0.361398,0.698807 0.09646,0.384344 0.252366,0.757342 0.346448,0.828883 0.09408,0.07154 0.312486,0.359613 0.485338,0.640158 0.172851,0.280545 0.621856,1.112616 0.997786,1.849047 0.375933,0.736431 0.779658,1.338965 0.897168,1.338965 0.117513,0 0.213658,0.229537 0.213658,0.510082 0,0.505456 -0.170028,0.510082 -18.745512,0.510082 z m 0.03507,-1.020164 h 15.46505 L 60.968858,43.547385 C 60.42355,43.12824 59.838769,42.669166 59.66935,42.527221 c -0.169421,-0.141948 -0.374913,-0.258086 -0.456651,-0.258086 -0.08174,0 -0.51696,-0.258229 -0.967166,-0.573843 -0.450206,-0.315613 -0.875941,-0.631226 -0.946077,-0.701362 -0.07014,-0.07014 -0.312293,-0.242289 -0.538124,-0.382562 -0.225831,-0.140272 -1.647577,-1.115804 -3.159435,-2.167848 -1.511857,-1.052044 -2.99123,-2.08496 -3.287491,-2.295369 -0.296263,-0.210408 -0.576915,-0.468637 -0.623672,-0.573842 -0.04676,-0.105204 -0.194867,-0.191281 -0.32913,-0.191281 -0.134262,0 -0.612463,-0.258229 -1.062669,-0.573842 -0.450206,-0.315613 -0.875941,-0.64445 -0.946077,-0.730748 -0.07014,-0.0863 -0.373656,-0.233653 -0.67449,-0.327458 -0.345356,-0.107688 -0.691168,-0.02635 -0.938186,0.220667 -0.21517,0.21517 -0.496396,0.391218 -0.624947,0.391218 -0.128553,0 -0.441458,0.229536 -0.695349,0.510081 -0.253891,0.280546 -0.603705,0.510082 -0.777365,0.510082 -0.17366,0 -0.381806,0.172153 -0.46255,0.382562 -0.08074,0.210409 -0.293863,0.387226 -0.473608,0.392926 -0.179743,0.0057 -0.724158,0.350006 -1.209815,0.765123 -0.485654,0.415118 -0.98696,0.754758 -1.114014,0.754758 -0.127054,0 -0.647848,0.348297 -1.157317,0.773993 -0.509473,0.425697 -1.064932,0.884771 -1.23435,1.020164 -0.169421,0.135394 -0.374913,0.246171 -0.456651,0.246171 -0.08174,0 -0.516961,0.258229 -0.967167,0.573842 -0.450206,0.315613 -0.856812,0.659919 -0.903569,0.765123 -0.04676,0.105204 -0.229815,0.191281 -0.406795,0.191281 -0.176978,0 -0.529506,0.229537 -0.783397,0.510082 -0.253891,0.280545 -0.615983,0.510082 -0.804652,0.510082 -0.188666,0 -0.343032,0.108507 -0.343032,0.241123 0,0.132619 -0.315614,0.416686 -0.701363,0.631257 -0.38575,0.214574 -0.902208,0.463759 -1.147685,0.553745 -0.245477,0.08999 -0.446321,0.264995 -0.446321,0.388907 0,0.12789 6.686279,0.225295 15.465047,0.225295 z m 16.390844,-1.035163 c 0.05681,0.0083 -0.06766,-0.185845 -0.27661,-0.431322 -0.208942,-0.245477 -0.640971,-0.96278 -0.960066,-1.594006 -0.319094,-0.631227 -0.665177,-1.205069 -0.769073,-1.275205 -0.103899,-0.07014 -0.311821,-0.471826 -0.462053,-0.892644 -0.248591,-0.696333 -0.274957,-0.62181 -0.293282,0.828884 -0.01107,0.876703 0.07787,1.594006 0.197664,1.594006 0.119788,0 0.505624,0.258229 0.857413,0.573842 0.351788,0.315613 0.856312,0.710554 1.121167,0.877644 0.264853,0.167093 0.52803,0.310553 0.58484,0.318801 z m -3.992664,-2.803828 c 0.105204,0.0074 0.18959,-0.818694 0.187521,-1.83567 -0.0023,-1.160863 -0.143226,-2.086353 -0.378486,-2.48665 -0.206098,-0.350681 -0.447329,-0.838447 -0.536068,-1.083924 -0.08874,-0.245477 -0.262725,-0.446321 -0.386637,-0.446321 -0.123911,0 -0.225295,1.133685 -0.225295,2.519302 0,2.323976 0.04449,2.550336 0.573842,2.919594 0.315613,0.220159 0.659919,0.406311 0.765123,0.413669 z m -2.423371,-4.671904 c 0.07158,-2.939233 0.02329,-3.392703 -0.461864,-4.335697 -0.29799,-0.579226 -0.703136,-1.340062 -0.900318,-1.690743 -0.31724,-0.564204 -0.351194,-0.138852 -0.294927,3.694939 l 0.06358,4.332542 0.701363,0.335874 c 0.38575,0.184728 0.726306,0.47307 0.756791,0.640757 0.03049,0.167684 0.0914,-1.172265 0.135371,-2.977672 z m -3.06001,0.844509 c 0.243515,0.01158 0.318801,-1.042587 0.318801,-4.463854 0,-4.364483 -0.01793,-4.516103 -0.701363,-5.929702 l -0.701362,-1.450692 -0.06894,5.457068 c -0.06234,4.934691 -0.02572,5.500859 0.382561,5.914543 0.248326,0.251614 0.594962,0.4643 0.770303,0.472637 z m -2.29073,-7.696289 c 0.0413,-3.71462 -0.02817,-6.212135 -0.175325,-6.303079 -0.13405,-0.08285 -0.394365,-0.492599 -0.578482,-0.910562 -0.289147,-0.656393 -0.344047,0.142936 -0.402941,5.866698 -0.06818,6.625956 -0.06813,6.626673 0.510082,7.063012 l 0.578267,0.436381 z m -2.956914,4.140873 c 0.115821,0 0.210584,-3.436279 0.210584,-7.636178 0,-5.287014 -0.08647,-7.689615 -0.281062,-7.809884 -0.154586,-0.09554 -0.470199,-0.590078 -0.701363,-1.098976 -0.402391,-0.885843 -0.423172,-0.57838 -0.487702,7.215728 -0.06681,8.068905 -0.06246,8.146259 0.49078,8.735154 0.306998,0.326786 0.652943,0.594156 0.768763,0.594156 z M 161.35618,45.329626 c -10.38017,0 -18.87304,-0.04123 -18.87304,-0.09162 0,-0.05039 0.35933,-0.767694 0.79851,-1.594006 0.43918,-0.826313 0.8719,-1.559772 0.9616,-1.629908 0.0897,-0.07014 0.30219,-0.414442 0.4722,-0.765123 0.17001,-0.350682 0.71253,-1.326213 1.2056,-2.167849 0.49306,-0.841635 0.97447,-1.702398 1.06981,-1.912807 0.0953,-0.210409 0.23909,-0.440032 0.31946,-0.510276 0.0804,-0.07024 0.36184,-0.529314 0.6255,-1.020163 0.26365,-0.490847 0.73857,-1.373154 1.05538,-1.960681 0.3168,-0.587528 0.81839,-1.408622 1.11463,-1.824658 0.29624,-0.416035 0.53863,-0.873972 0.53863,-1.017639 0,-0.143667 0.14346,-0.414908 0.3188,-0.602759 0.17534,-0.18785 0.60332,-0.88466 0.95107,-1.548463 0.34776,-0.663805 0.70831,-1.206918 0.80124,-1.206918 0.0929,0 0.24788,-0.314463 0.34435,-0.698807 0.0965,-0.384345 0.25236,-0.757342 0.34645,-0.828884 0.0941,-0.07154 0.31248,-0.359612 0.48533,-0.640157 0.17285,-0.280545 0.62186,-1.112616 0.99779,-1.849047 0.37593,-0.736431 0.77054,-1.338965 0.8769,-1.338965 0.10637,0 0.26902,-0.344305 0.36145,-0.765123 0.0924,-0.420817 0.25493,-0.765123 0.36112,-0.765123 0.10619,0 0.50598,-0.602534 0.88842,-1.338965 0.38245,-0.736431 0.83159,-1.568502 0.99811,-1.849047 0.16652,-0.280545 0.37973,-0.568616 0.47382,-0.640157 0.0941,-0.07154 0.24998,-0.444539 0.34644,-0.828883 0.0965,-0.384345 0.25143,-0.698808 0.34435,-0.698808 0.0929,0 0.45109,-0.516458 0.79591,-1.147684 0.3781,-0.692141 0.80622,-1.147685 1.0786,-1.147685 0.24841,0 0.45165,0.172153 0.45165,0.382562 0,0.210409 0.0875,0.382561 0.19456,0.382561 0.10701,0 0.30786,0.216148 0.44632,0.480329 0.13847,0.264181 0.586,1.124944 0.99451,1.912807 0.40851,0.787863 0.82977,1.432479 0.93614,1.432479 0.10636,0 0.26901,0.344305 0.36144,0.765123 0.0924,0.420817 0.25493,0.765123 0.36112,0.765123 0.10619,0 0.50598,0.602534 0.88842,1.338965 0.38245,0.73643 0.8316,1.568502 0.99811,1.849047 0.16652,0.280545 0.37974,0.568615 0.47382,0.640157 0.0941,0.07154 0.24998,0.444538 0.34645,0.828883 0.0965,0.384344 0.27435,0.698808 0.39531,0.698808 0.12096,0 0.5389,0.638942 0.92875,1.419872 0.38986,0.78093 0.82213,1.641693 0.9606,1.912807 0.13846,0.271113 0.33931,0.492935 0.44632,0.492935 0.10701,0 0.19456,0.163956 0.19456,0.364344 0,0.200391 0.1505,0.516004 0.33444,0.701363 0.18394,0.185361 0.60598,0.882169 0.93785,1.548463 0.33188,0.666295 0.68872,1.211445 0.79298,1.211445 0.10427,0 0.2652,0.344305 0.35762,0.765123 0.0924,0.420817 0.26031,0.765123 0.37308,0.765123 0.11277,0 0.27855,0.200844 0.36841,0.446321 0.0899,0.245477 0.44787,0.905396 0.79557,1.466486 0.3477,0.56109 0.70264,1.221009 0.78875,1.466485 0.0861,0.245477 0.24884,0.446322 0.3616,0.446322 0.11277,0 0.28066,0.344305 0.37308,0.765123 0.0924,0.420818 0.27034,0.765123 0.39536,0.765123 0.12502,0 0.52235,0.602534 0.88296,1.338965 0.36061,0.736431 0.79435,1.568502 0.96387,1.849047 0.16952,0.280545 0.3852,0.568616 0.47928,0.640158 0.0941,0.07154 0.2479,0.436235 0.34182,0.810428 0.0939,0.374194 0.33255,0.74244 0.5303,0.818325 0.19775,0.07588 0.35955,0.313723 0.35955,0.528536 0,0.347208 -2.09512,0.390565 -18.87303,0.390565 z m -0.0312,-1.020164 c 8.43353,0 15.33369,-0.08755 15.33369,-0.194563 0,-0.10701 -0.21666,-0.307855 -0.48146,-0.446322 -0.26479,-0.138466 -1.72809,-1.095043 -3.25177,-2.125723 -1.52367,-1.030681 -2.80858,-1.977521 -2.85533,-2.104088 -0.0468,-0.126569 -0.2419,-0.230123 -0.43365,-0.230123 -0.19175,0 -0.44042,-0.143461 -0.55259,-0.318801 -0.11218,-0.175341 -0.43349,-0.462535 -0.71404,-0.638212 -0.28054,-0.175675 -0.76831,-0.431063 -1.08392,-0.56753 -0.31561,-0.136465 -0.57384,-0.338513 -0.57384,-0.448995 0,-0.110481 -0.2163,-0.314167 -0.48067,-0.452634 -0.26437,-0.138466 -1.44285,-0.907884 -2.61886,-1.709815 -1.57906,-1.076783 -2.28702,-1.419137 -2.70734,-1.309219 -0.31304,0.08186 -0.56916,0.253062 -0.56916,0.380444 0,0.127386 -0.25823,0.345333 -0.57384,0.484331 -0.31561,0.138997 -1.43461,0.875838 -2.48665,1.637429 -1.05204,0.761588 -2.05142,1.505785 -2.22084,1.653772 -0.16942,0.147985 -0.40987,0.269066 -0.53432,0.269066 -0.12445,0 -0.434,0.229537 -0.68789,0.510082 -0.25389,0.280545 -0.61599,0.510082 -0.80465,0.510082 -0.18867,0 -0.34304,0.11761 -0.34304,0.261353 0,0.143744 -0.25823,0.373008 -0.57384,0.509473 -0.31561,0.136467 -0.80338,0.391855 -1.08392,0.567529 -0.28055,0.175678 -0.60186,0.462872 -0.71404,0.638212 -0.11217,0.175341 -0.31975,0.318802 -0.46128,0.318802 -0.14152,0 -0.73836,0.372997 -1.32629,0.828883 -0.58793,0.455885 -1.10722,0.914959 -1.15398,1.020164 -0.0468,0.105204 -0.23355,0.19128 -0.41509,0.19128 -0.18155,0 -0.47296,0.172153 -0.64758,0.382562 -0.28162,0.339332 1.41516,0.382561 15.01619,0.382561 z m 16.06613,-1.593463 c 0.0522,-0.137949 -0.008,-0.323618 -0.13271,-0.4126 -0.12515,-0.08898 -0.37429,-0.448706 -0.55364,-0.799387 -0.17934,-0.350682 -0.52062,-0.981908 -0.75839,-1.402726 l -0.43231,-0.765123 -0.0852,0.73218 c -0.0469,0.402699 -0.0211,0.976541 0.0573,1.275205 0.0784,0.298663 0.51772,0.786079 0.97632,1.083146 0.4586,0.297066 0.8765,0.427255 0.92866,0.289305 z m -3.77717,-2.247308 c 0.0788,0.0083 0.16414,-0.954068 0.18961,-2.138674 0.0286,-1.330725 -0.0601,-2.219622 -0.23223,-2.325987 -0.15321,-0.09468 -0.43489,-0.531373 -0.62595,-0.97042 -0.3226,-0.741285 -0.34811,-0.60864 -0.35738,1.858269 -0.008,2.196533 0.0673,2.734901 0.43634,3.109095 0.24548,0.248907 0.5108,0.459379 0.58961,0.467717 z m -2.36752,-5.210724 c 0.0455,-2.281452 -0.0235,-3.599656 -0.19128,-3.655587 -0.14433,-0.04811 -0.26242,-0.23601 -0.26242,-0.417553 0,-0.181543 -0.17215,-0.472953 -0.38256,-0.647577 -0.33712,-0.279782 -0.38256,0.12989 -0.38256,3.448746 0,3.576615 0.0289,3.793275 0.57384,4.303163 l 0.57384,0.536922 z m -2.92548,1.392156 c 0.11338,0.0045 0.17076,-2.291625 0.12752,-5.102413 -0.0503,-3.270761 -0.17714,-5.175891 -0.35227,-5.2921 -0.15051,-0.09987 -0.38004,-0.411114 -0.51008,-0.691659 -0.15595,-0.336447 -0.2599,1.345632 -0.30537,4.941406 -0.0628,4.964668 -0.0286,5.48208 0.38257,5.794072 0.24831,0.188419 0.54425,0.346231 0.65763,0.350694 z m -2.36132,-1.522136 c 0.18172,0 0.24316,-2.010046 0.19128,-6.258128 -0.0541,-4.432541 -0.16353,-6.311865 -0.37502,-6.442339 -0.16422,-0.101316 -0.3775,-0.498674 -0.47397,-0.883019 -0.0965,-0.384344 -0.27771,-0.698808 -0.40278,-0.698808 -0.12743,0 -0.22739,2.963615 -0.22739,6.741399 0,6.517408 0.017,6.746779 0.51008,6.903293 0.28055,0.08904 0.51008,0.268928 0.51008,0.399749 0,0.130818 0.12047,0.237853 0.26772,0.237853 z m -2.36795,-9.131455 c 0.0578,-6.429924 0.0114,-7.587182 -0.3188,-7.952029 -0.21253,-0.234842 -0.38642,-0.56141 -0.38642,-0.725705 0,-0.164296 -0.10565,-0.298719 -0.23477,-0.298719 -0.12913,0 -0.3104,-0.344306 -0.40283,-0.765123 -0.0924,-0.420818 -0.2737,-0.765123 -0.40283,-0.765123 -0.13818,0 -0.23477,3.402693 -0.23477,8.270321 v 8.27032 l 0.70136,0.524247 c 0.38575,0.288334 0.81613,0.623833 0.9564,0.745549 0.16907,0.146707 0.27784,-2.315278 0.32266,-7.303738 z M 79.998103,31.61664 c -0.631226,0.06851 -1.49199,0.07305 -1.912807,0.0101 -0.420818,-0.06295 -0.906202,-0.231149 -1.078632,-0.37377 -0.172431,-0.142622 -0.488044,-0.609173 -0.701363,-1.03678 -0.213319,-0.427609 -0.387854,-1.276296 -0.387854,-1.885972 0,-0.609675 0.114769,-1.1085 0.255041,-1.1085 0.140273,0 0.255041,-0.164338 0.255041,-0.365195 0,-0.200855 0.351929,-0.615789 0.782063,-0.922071 0.651127,-0.463644 1.037081,-0.538431 2.305275,-0.446698 1.13382,0.08201 1.667376,0.2544 2.087148,0.674338 0.481043,0.481232 0.562473,0.837333 0.553975,2.422576 -0.008,1.488791 -0.109431,1.962739 -0.510082,2.382916 -0.304912,0.319773 -0.948087,0.573116 -1.647805,0.649057 z m 13.00709,0.0037 c -0.631226,0.07547 -1.434605,0.0635 -1.785287,-0.0266 -0.350681,-0.0901 -0.895831,-0.390162 -1.211444,-0.666812 -0.376076,-0.329651 -0.573843,-0.791107 -0.573843,-1.338965 0,-0.480166 -0.130259,-0.835964 -0.306049,-0.835964 -0.238037,0 -0.238037,-0.06801 0,-0.306049 0.168327,-0.168327 0.306049,-0.617199 0.306049,-0.997493 0,-0.464876 0.267607,-0.916617 0.816688,-1.37864 0.726616,-0.611406 0.979388,-0.675429 2.291877,-0.580492 1.102789,0.07977 1.637026,0.258745 2.116282,0.708983 0.369072,0.346725 0.641096,0.88642 0.641096,1.271935 0,0.368312 0.137722,0.80738 0.306049,0.975707 0.238038,0.238038 0.238038,0.374061 0,0.612099 -0.168327,0.168327 -0.308031,0.541324 -0.310456,0.828883 -0.0023,0.287558 -0.260652,0.76434 -0.573842,1.059516 -0.328804,0.309891 -1.054421,0.594664 -1.71712,0.67389 z m 11.731887,-0.0032 c -0.63123,0.06824 -1.44918,0.07645 -1.81766,0.01826 -0.36849,-0.05819 -0.94233,-0.395712 -1.27521,-0.750043 -0.51777,-0.551146 -0.60523,-0.901832 -0.60523,-2.426916 0,-1.412899 0.09,-1.833031 0.43374,-2.025409 0.23855,-0.133501 0.60335,-0.412349 0.81066,-0.619663 0.22967,-0.229667 0.85736,-0.375465 1.6066,-0.373174 0.67631,0.0021 1.50532,0.145528 1.84223,0.318801 0.33691,0.173273 0.69207,0.487194 0.78924,0.697603 0.0972,0.210409 0.30928,0.639232 0.47136,0.952943 0.16207,0.31371 0.29468,0.898611 0.29468,1.29978 0,0.401172 -0.17454,1.079262 -0.38786,1.506871 -0.21331,0.427607 -0.52893,0.889838 -0.70136,1.027175 -0.17243,0.137337 -0.82997,0.305534 -1.46119,0.373772 z m 12.21567,0.0099 c -0.61676,0.07632 -1.49762,0.04832 -1.95745,-0.0622 -0.45984,-0.110527 -1.06237,-0.46189 -1.33897,-0.780806 -0.3937,-0.453937 -0.5029,-0.954126 -0.5029,-2.303443 0,-1.611555 0.051,-1.766508 0.78469,-2.383864 0.63007,-0.530164 1.05339,-0.660274 2.14828,-0.660274 1.09489,0 1.51822,0.13011 2.14828,0.660274 0.4767,0.401114 0.78469,0.901635 0.78469,1.275204 0,0.338212 0.11477,0.614931 0.25504,0.614931 0.14028,0 0.25505,0.222763 0.25505,0.49503 0,0.272266 -0.11477,0.565961 -0.25505,0.652655 -0.14027,0.08669 -0.25504,0.46965 -0.25504,0.851015 0,0.381363 -0.21267,0.87549 -0.47261,1.098056 -0.25994,0.222564 -0.97724,0.467105 -1.59401,0.543421 z m 12.65082,10e-4 c -0.56109,0.06513 -1.36447,0.06572 -1.78528,0.0013 -0.42082,-0.0644 -0.9062,-0.233791 -1.07863,-0.376412 -0.17244,-0.142622 -0.48805,-0.609173 -0.70137,-1.03678 -0.21332,-0.427543 -0.38785,-1.272405 -0.38785,-1.877403 0,-0.919065 0.14823,-1.248226 0.90114,-2.001145 0.80422,-0.804219 1.04617,-0.901144 2.24944,-0.901144 1.14373,0 1.48101,0.118495 2.2231,0.781037 0.82432,0.735946 0.87482,0.875492 0.87482,2.417092 0,1.409897 -0.0881,1.721695 -0.6376,2.25557 -0.38344,0.372556 -1.04427,0.666718 -1.65777,0.737933 z M 77.29007,19.315447 c -0.07014,0 -0.05659,-0.114768 0.0301,-0.25504 0.08669,-0.140273 0.215007,-0.255041 0.285143,-0.255041 0.07014,0 0.05659,0.114768 -0.0301,0.255041 -0.08669,0.140272 -0.215007,0.25504 -0.285143,0.25504 z m 27.26442,-0.160298 c -0.67108,0.06304 -1.4641,0.0614 -1.76229,-0.0036 -0.29818,-0.06505 -0.81254,-0.406087 -1.14302,-0.75787 -0.49992,-0.532146 -0.60166,-0.912585 -0.60554,-2.264384 -0.004,-1.453125 0.0745,-1.707451 0.74442,-2.407301 0.6504,-0.679434 0.92601,-0.782524 2.09209,-0.782524 0.73866,0 1.64254,0.136476 2.00864,0.30328 0.41017,0.186887 0.72065,0.578407 0.809,1.020164 0.0789,0.394286 0.2438,0.716884 0.36654,0.716884 0.12274,0 0.22316,0.516458 0.22316,1.147684 0,0.631227 -0.11477,1.147685 -0.25504,1.147685 -0.14028,0 -0.25504,0.20403 -0.25504,0.453401 0,0.249371 -0.22563,0.646589 -0.5014,0.882706 -0.27576,0.236118 -1.05045,0.480883 -1.72152,0.543922 z m 28.73559,0.0084 c -0.62485,0.05923 -1.40378,0.05103 -1.73096,-0.01822 -0.32717,-0.06925 -0.81494,-0.314345 -1.08392,-0.544657 -0.26899,-0.230313 -0.48906,-0.673392 -0.48906,-0.984621 0,-0.311228 -0.11477,-0.6368 -0.25505,-0.723494 -0.14027,-0.08669 -0.25504,-0.430998 -0.25504,-0.765123 0,-0.334124 0.11477,-0.678429 0.25504,-0.765123 0.14028,-0.08669 0.25505,-0.405425 0.25505,-0.708294 0,-0.302869 0.30477,-0.812554 0.67727,-1.132633 0.55005,-0.472649 0.97903,-0.581962 2.28377,-0.581962 1.3812,0 1.69755,0.09105 2.2557,0.649196 0.56766,0.56766 0.6492,0.865965 0.6492,2.375173 0,1.556759 -0.0699,1.792945 -0.71295,2.409024 -0.49295,0.472283 -1.0635,0.716274 -1.84905,0.790734 z M 75.474587,19.0354 c -0.527925,-0.01375 -1.205855,-0.161695 -1.506507,-0.328758 -0.300653,-0.167064 -0.731034,-0.456785 -0.956404,-0.643825 -0.225369,-0.18704 -0.409761,-0.647371 -0.409761,-1.022959 0,-0.375587 -0.137722,-0.820608 -0.306049,-0.988935 -0.238038,-0.238038 -0.238038,-0.37406 0,-0.612098 0.168327,-0.168327 0.306049,-0.601895 0.306049,-0.963484 0,-0.361588 0.200906,-0.826401 0.446454,-1.032915 0.245551,-0.206516 0.878907,-0.527141 1.407456,-0.712502 0.770928,-0.270363 1.149223,-0.275349 1.912673,-0.02521 0.52342,0.171494 1.207922,0.552689 1.52111,0.847101 0.484374,0.455333 0.570096,0.8056 0.573842,2.344813 0.0035,1.420436 -0.09156,1.886567 -0.441914,2.167849 -0.245477,0.197081 -0.702993,0.50179 -1.016703,0.67713 -0.313711,0.175341 -1.002322,0.307549 -1.530246,0.293795 z M 117.48913,6.382256 c -0.28055,0.073364 -0.51008,0.029366 -0.51008,-0.097775 0,-0.1271402 0.22953,-0.231164 0.51008,-0.231164 0.28054,0 0.51008,0.043999 0.51008,0.097775 0,0.053776 -0.22954,0.1578 -0.51008,0.231164 z M 58.31962,2.7377846 c -0.187029,0 -0.263542,-0.076512 -0.170028,-0.1700273 0.09352,-0.093515 0.24654,-0.093515 0.340056,0 0.09351,0.093515 0.017,0.1700273 -0.170028,0.1700273 z"
       style="fill:#000000;stroke-width:0.255041" />
  </g>
</svg>
